{"title":"Glasses Malone ft The Cataracs - I Get Doe [KingPinVideos]","uid":5761458,"size":79646253,"categoryP":"video","categoryS":"music_videos","magnet":"?xt=urn:btih:33b2f8b836f263d57356bf17e30c541292f904eb&amp;dn=Glasses+Malone+ft+The+Cataracs+-+I+Get+Doe+%5BKingPinVideos%5D&amp;tr=udp%3A%2F%2Ftracker.openbittorrent.com%3A80&amp;tr=udp%3A%2F%2Fopen.demonii.com%3A1337&amp;tr=udp%3A%2F%2Ftracker.coppersurfer.tk%3A6969&amp;tr=udp%3A%2F%2Fexodus.desync.com%3A6969","seeders":1,"leechers":0,"uploader":"KingPinMan","files":4,"time":1281745715,"description":"[img]http://a.imageshack.us/img843/4341/glassedoe.png[/img]\n\n[img]http://a.imageshack.us/img29/5086/glassedoe2.png[/img]\n\n[code]General\nComplete name                    : Glasses Malone ft The Cataracs - I Get Doe [KingPinVideos].mpg\nFormat                           : MPEG-PS\nFile size                        : 76.0 MiB\nDuration                         : 3mn 43s\nOverall bit rate                 : 2 856 Kbps\nWriting library                  : encoded by TMPGEnc 4.0 XPress Version. 4.7.4.299\n\nVideo\nID                               : 224 (0xE0)\nFormat                           : MPEG Video\nFormat version                   : Version 1\nFormat settings, BVOP            : Yes\nFormat settings, Matrix          : Default\nDuration                         : 3mn 43s\nBit rate mode                    : Constant\nBit rate                         : 2 615 Kbps\nNominal bit rate                 : 2 700 Kbps\nWidth                            : 384 pixels\nHeight                           : 208 pixels\nDisplay aspect ratio             : 16:9\nFrame rate                       : 29.970 fps\nResolution                       : 8 bits\nScan type                        : Progressive\nBits/(Pixel*Frame)               : 1.092\nStream size                      : 69.5 MiB (92%)\nWriting library                  : TMPGEnc XPress 4.7.4.299\n\nAudio\nID                               : 192 (0xC0)\nFormat                           : MPEG Audio\nFormat version                   : Version 1\nFormat profile                   : Layer 2\nDuration                         : 3mn 43s\nBit rate mode                    : Constant\nBit rate                         : 128 Kbps\nChannel(s)                       : 2 channels\nSampling rate                    : 48.0 KHz\nStream size                      : 3.40 MiB (4%)[/code]","torrent":{"xt":"urn:btih:33b2f8b836f263d57356bf17e30c541292f904eb","amp;dn":"Glasses+Malone+ft+The+Cataracs+-+I+Get+Doe+%5BKingPinVideos%5D","amp;tr":["udp%3A%2F%2Ftracker.openbittorrent.com%3A80","udp%3A%2F%2Fopen.demonii.com%3A1337","udp%3A%2F%2Ftracker.coppersurfer.tk%3A6969","udp%3A%2F%2Fexodus.desync.com%3A6969"],"infoHash":"33b2f8b836f263d57356bf17e30c541292f904eb","infoHashBuffer":{"type":"Buffer","data":[51,178,248,184,54,242,99,213,115,86,191,23,227,12,84,18,146,249,4,235]},"announce":[],"urlList":[]}}